PathFileType	4	(X/Y/Z)
DataRate	CameraRate	NumFrames	NumMarkers	Units	OrigDataRate	OrigDataStartFrame	OrigNumFrames	
	120.0	120.0	6	39	mm	120.0	1	231
Frame#	Time	midhip	hip_r	hip_l	knee_r	knee_l	ankle_r	ankle_l	midasis	asis_r	asis_l	psis_r	psis_l	epicondLat_r	epicondLat_l	epicondMed_r	epicondMed_l	malleolusLat_r	malleolusLat_l	malleolusMedv_r	malleolusMedv_l	heel_r	heel_l	sternalnotch	xyphoidprocess	neck	subclavicle_r	subclavicle_l	toe_r	toe_l	thighwand_r	thighwand_l	upperleg1_r	upperleg1_l	upperleg2_r	upperleg2_l	shankwand_r	shankwand_l	lowerleg1_r	lowerleg1_l
	X1	Y1	Z1	X2	Y2	Z2	X3	Y3	Z3	X4	Y4	Z4	X5	Y5	Z5	X6	Y6	Z6	X7	Y7	Z7	X8	Y8	Z8	X9	Y9	Z9	X10	Y10	Z10	X11	Y11	Z11	X12	Y12	Z12	X13	Y13	Z13	X14	Y14	Z14	X15	Y15	Z15	X16	Y16	Z16	X17	Y17	Z17	X18	Y18	Z18	X19	Y19	Z19	X20	Y20	Z20	X21	Y21	Z21	X22	Y22	Z22	X23	Y23	Z23	X24	Y24	Z24	X25	Y25	Z25	X26	Y26	Z26	X27	Y27	Z27	X28	Y28	Z28	X29	Y29	Z29	X30	Y30	Z30	X31	Y31	Z31	X32	Y32	Z32	X33	Y33	Z33	X34	Y34	Z34	X35	Y35	Z35	X36	Y36	Z36	X37	Y37	Z37	X38	Y38	Z38	X39	Y39	Z39

	1	0.00833	1361.594	701.542	-227.334	1359.319	704.009	-164.509	1363.869	699.075	-290.159	1340.530	374.300	-139.352	1341.735	378.081	-308.197	1355.299	57.504	-109.517	1336.393	59.349	-343.718	1437.178	752.885	-226.614	1433.803	756.545	-133.410	1440.552	749.225	-319.817	1302.121	816.124	-213.492	1299.889	809.328	-268.938	1338.457	378.256	-89.050	1341.570	380.898	-358.118	1337.630	376.028	-189.494	1343.052	366.408	-254.935	1345.240	60.035	-77.663	1330.382	63.211	-377.470	1351.665	65.343	-137.307	1332.618	60.345	-313.857	1299.795	39.035	-112.560	1283.333	40.847	-338.576	1399.063	1115.246	-244.770	1453.111	981.512	-240.222	1323.710	1149.138	-245.798	1398.029	1128.068	-184.629	1403.926	1127.108	-299.764	1451.351	40.052	-99.134	1432.101	38.660	-357.440	1342.088	485.145	-20.906	1478.032	475.534	-334.602	1382.120	538.262	-91.364	1413.883	529.972	-273.836	1386.607	453.783	-98.771	1397.092	443.800	-274.825	1317.083	168.179	-15.161	1420.845	163.161	-371.769	1329.617	219.466	-78.912	1360.625	216.568	-344.047
	2	0.01667	1361.619	701.538	-227.344	1359.337	704.003	-164.519	1363.901	699.072	-290.169	1340.514	374.328	-139.352	1341.749	378.095	-308.210	1355.270	57.519	-109.517	1336.400	59.337	-343.696	1437.202	752.882	-226.614	1433.816	756.540	-133.403	1440.588	749.224	-319.824	1302.128	816.121	-213.503	1299.905	809.331	-268.957	1338.436	378.287	-89.050	1341.584	380.913	-358.130	1337.583	376.041	-189.519	1343.076	366.439	-254.938	1345.209	60.050	-77.664	1330.389	63.196	-377.449	1351.742	65.343	-137.274	1332.618	60.374	-313.847	1299.830	39.032	-112.559	1283.335	40.858	-338.591	1399.032	1115.263	-244.814	1453.164	981.563	-240.263	1323.647	1149.108	-245.801	1397.951	1128.071	-184.655	1403.921	1127.140	-299.818	1451.356	40.065	-99.133	1432.096	38.664	-357.439	1342.083	485.158	-20.918	1478.045	475.537	-334.609	1382.089	538.246	-91.370	1413.929	530.003	-273.896	1386.579	453.792	-98.792	1397.123	443.805	-274.853	1317.100	168.183	-15.167	1420.848	163.176	-371.768	1329.577	219.503	-78.925	1360.612	216.578	-344.087
	3	0.02500	1361.650	701.523	-227.359	1359.364	703.987	-164.534	1363.937	699.059	-290.183	1340.510	374.348	-139.355	1341.765	378.092	-308.225	1355.286	57.509	-109.520	1336.418	59.303	-343.666	1437.232	752.868	-226.621	1433.839	756.524	-133.408	1440.625	749.212	-319.835	1302.137	816.113	-213.517	1299.919	809.327	-268.973	1338.427	378.309	-89.053	1341.602	380.909	-358.145	1337.646	376.017	-189.527	1343.052	366.421	-254.910	1345.221	60.039	-77.668	1330.408	63.157	-377.419	1351.842	65.321	-137.212	1332.636	60.370	-313.827	1299.861	39.021	-112.557	1283.334	40.859	-338.599	1399.038	1115.251	-244.786	1453.212	981.567	-240.243	1323.592	1149.089	-245.807	1398.002	1128.073	-184.633	1403.881	1127.115	-299.793	1451.376	40.057	-99.140	1432.095	38.653	-357.442	1342.086	485.157	-20.931	1478.060	475.525	-334.626	1382.076	538.226	-91.365	1413.952	529.955	-273.876	1386.598	453.793	-98.788	1397.120	443.777	-274.835	1317.131	168.169	-15.178	1420.854	163.168	-371.768	1329.564	219.510	-78.916	1360.607	216.553	-344.096
	4	0.03333	1361.688	701.501	-227.375	1359.400	703.964	-164.551	1363.977	699.039	-290.200	1340.516	374.356	-139.357	1341.781	378.075	-308.238	1355.329	57.481	-109.524	1336.440	59.260	-343.636	1437.270	752.847	-226.634	1433.874	756.500	-133.422	1440.665	749.193	-319.847	1302.149	816.101	-213.531	1299.932	809.318	-268.986	1338.428	378.321	-89.056	1341.621	380.891	-358.158	1337.790	375.951	-189.525	1343.047	366.359	-254.899	1345.261	60.009	-77.673	1330.433	63.109	-377.391	1351.863	65.285	-137.188	1332.665	60.325	-313.811	1299.887	39.005	-112.551	1283.335	40.851	-338.605	1399.024	1115.203	-244.705	1453.172	981.509	-240.170	1323.526	1149.075	-245.820	1398.054	1128.048	-184.559	1403.811	1127.046	-299.718	1451.402	40.029	-99.148	1432.097	38.629	-357.445	1342.099	485.146	-20.942	1478.078	475.503	-334.648	1382.097	538.196	-91.354	1413.948	529.872	-273.821	1386.661	453.750	-98.770	1397.120	443.744	-274.810	1317.166	168.144	-15.190	1420.859	163.141	-371.770	1329.604	219.467	-78.913	1360.625	216.474	-344.066
	5	0.04167	1361.730	701.478	-227.387	1359.442	703.939	-164.562	1364.017	699.017	-290.212	1340.530	374.354	-139.357	1341.796	378.051	-308.247	1355.360	57.448	-109.527	1336.457	59.226	-343.617	1437.311	752.824	-226.646	1433.917	756.476	-133.436	1440.705	749.173	-319.856	1302.162	816.088	-213.546	1299.946	809.306	-268.997	1338.439	378.321	-89.057	1341.641	380.867	-358.167	1337.870	375.861	-189.531	1343.042	366.331	-254.922	1345.290	59.975	-77.676	1330.453	63.071	-377.373	1351.885	65.232	-137.211	1332.711	60.262	-313.810	1299.905	38.993	-112.543	1283.336	40.840	-338.608	1398.930	1115.121	-244.746	1452.960	981.379	-240.209	1323.456	1149.058	-245.827	1397.913	1127.943	-184.615	1403.780	1126.980	-299.731	1451.423	39.993	-99.154	1432.104	38.603	-357.445	1342.118	485.130	-20.948	1478.105	475.477	-334.662	1382.129	538.170	-91.394	1413.947	529.837	-273.844	1386.715	453.664	-98.792	1397.120	443.718	-274.828	1317.190	168.119	-15.198	1420.865	163.104	-371.770	1329.664	219.397	-78.941	1360.666	216.399	-344.050
	6	0.05000	1361.773	701.457	-227.394	1359.489	703.916	-164.570	1364.058	698.997	-290.219	1340.553	374.340	-139.358	1341.812	378.028	-308.251	1355.373	57.421	-109.530	1336.464	59.211	-343.613	1437.352	752.807	-226.657	1433.963	756.456	-133.450	1440.740	749.158	-319.864	1302.174	816.075	-213.562	1299.959	809.291	-269.004	1338.462	378.308	-89.058	1341.663	380.843	-358.172	1337.885	375.802	-189.570	1343.031	366.316	-254.983	1345.303	59.948	-77.680	1330.464	63.056	-377.369	1351.920	65.192	-137.256	1332.757	60.217	-313.824	1299.916	38.990	-112.535	1283.334	40.829	-338.608	1398.817	1115.051	-244.874	1452.731	981.262	-240.358	1323.395	1149.041	-245.819	1397.687	1127.815	-184.750	1403.789	1126.961	-299.819	1451.433	39.958	-99.156	1432.111	38.582	-357.442	1342.140	485.116	-20.951	1478.134	475.454	-334.670	1382.200	538.154	-91.462	1413.964	529.825	-273.897	1386.760	453.568	-98.851	1397.123	443.682	-274.877	1317.190	168.107	-15.198	1420.869	163.065	-371.769	1329.734	219.338	-78.982	1360.692	216.370	-344.066
